<svg version="1.1" xmlns="http://www.w3.org/2000/svg" viewBox="0 0 904.375 513.75" width="904.375" height="513.75">
  <!-- svg-source:excalidraw -->
  
  <defs>
    <style class="style-fonts">
      @font-face {
        font-family: "Virgil";
        src: url("https://excalidraw.com/Virgil.woff2");
      }
      @font-face {
        font-family: "Cascadia";
        src: url("https://excalidraw.com/Cascadia.woff2");
      }
      @font-face {
        font-family: "Assistant";
        src: url("https://excalidraw.com/Assistant-Regular.woff2");
      }
    </style>
    
  </defs>
  <rect x="0" y="0" width="904.375" height="513.75" fill="#ffffff"></rect><g stroke-linecap="round" transform="translate(10 171.25) rotate(0 180.625 32.5)"><path d="M16.25 0 C112.83 2.22, 213.3 -0.06, 345 0 M16.25 0 C142.8 0.92, 270.01 -0.13, 345 0 M345 0 C353.86 1.75, 362.25 5.2, 361.25 16.25 M345 0 C355.26 -0.34, 359.36 6.46, 361.25 16.25 M361.25 16.25 C360.49 22.55, 362.56 28.22, 361.25 48.75 M361.25 16.25 C361.51 22.43, 362.03 29.53, 361.25 48.75 M361.25 48.75 C360.5 60.47, 356.03 64.07, 345 65 M361.25 48.75 C359.06 59.48, 355.24 65.7, 345 65 M345 65 C241.69 65.83, 140.66 64.19, 16.25 65 M345 65 C262.69 64.88, 181.24 63.79, 16.25 65 M16.25 65 C6.14 65.77, -1.62 61.37, 0 48.75 M16.25 65 C3.4 62.99, -1.87 60.03, 0 48.75 M0 48.75 C-1.17 36.46, -0.67 25.5, 0 16.25 M0 48.75 C0.48 37.13, -0.8 24.15, 0 16.25 M0 16.25 C1.76 3.74, 3.99 -1.54, 16.25 0 M0 16.25 C0.7 5.32, 6.85 -0.99, 16.25 0" stroke="#1e1e1e" stroke-width="2" fill="none"></path></g><g transform="translate(70.3651351928711 191.25) rotate(0 120.2598648071289 12.5)"><text x="120.2598648071289" y="17.52" font-family="Virgil, Segoe UI Emoji" font-size="20px" fill="#1e1e1e" text-anchor="middle" style="white-space: pre;" direction="ltr" dominant-baseline="alphabetic">Skynet Nueral Processor</text></g><g transform="translate(425 133.75) rotate(0 38.74999237060547 77.50007934580003)"><text x="0" y="108.62411121107328" font-family="Virgil, Segoe UI Emoji" font-size="124.00012695328px" fill="#1e1e1e" text-anchor="start" style="white-space: pre;" direction="ltr" dominant-baseline="alphabetic">+</text></g><g stroke-linecap="round" transform="translate(533.125 171.25) rotate(0 180.625 30.625)"><path d="M15.31 0 C146.24 -2.56, 278.32 -1.57, 345.94 0 M15.31 0 C90.54 -1.4, 165.75 -1.08, 345.94 0 M345.94 0 C355.48 0.33, 359.46 4.98, 361.25 15.31 M345.94 0 C354.8 -0.32, 361.61 4.21, 361.25 15.31 M361.25 15.31 C361.02 25.82, 362.59 39.41, 361.25 45.94 M361.25 15.31 C361.83 21.17, 361.35 28.3, 361.25 45.94 M361.25 45.94 C362.5 54.6, 357.31 62.18, 345.94 61.25 M361.25 45.94 C362.61 55.45, 356.11 59.64, 345.94 61.25 M345.94 61.25 C217.1 60.65, 90.16 60.47, 15.31 61.25 M345.94 61.25 C220.36 61.68, 93.33 61.67, 15.31 61.25 M15.31 61.25 C6.06 61.4, -1.86 58.12, 0 45.94 M15.31 61.25 C6.3 63.39, -1.07 58.19, 0 45.94 M0 45.94 C-1.01 39.7, -1.58 29.74, 0 15.31 M0 45.94 C-0.01 34.88, -0.19 25.48, 0 15.31 M0 15.31 C-1.09 3.16, 4.02 1.53, 15.31 0 M0 15.31 C-1.64 4.48, 4.28 0.95, 15.31 0" stroke="#1e1e1e" stroke-width="2" fill="none"></path></g><g transform="translate(689.1100158691406 189.375) rotate(0 24.639984130859375 12.5)"><text x="24.639984130859375" y="17.52" font-family="Virgil, Segoe UI Emoji" font-size="20px" fill="#1e1e1e" text-anchor="middle" style="white-space: pre;" direction="ltr" dominant-baseline="alphabetic">LLM </text></g><g stroke-linecap="round" transform="translate(293.75 287.5) rotate(0 175.625 33.125)"><path d="M16.56 0 C96.71 -1.75, 175.85 -0.76, 334.69 0 M16.56 0 C86.14 1.9, 156.22 2.2, 334.69 0 M334.69 0 C345.9 1.25, 352.14 6.65, 351.25 16.56 M334.69 0 C347.55 -0.9, 350.96 7.03, 351.25 16.56 M351.25 16.56 C349.7 24.97, 350.5 36.88, 351.25 49.69 M351.25 16.56 C351.3 23.61, 351.37 32.79, 351.25 49.69 M351.25 49.69 C350.51 58.83, 347.37 67.69, 334.69 66.25 M351.25 49.69 C349.88 58.49, 347.58 68.48, 334.69 66.25 M334.69 66.25 C222.09 63.75, 109.48 63.67, 16.56 66.25 M334.69 66.25 C239.82 67.61, 144.53 67.64, 16.56 66.25 M16.56 66.25 C7.18 64.78, -0.92 60.68, 0 49.69 M16.56 66.25 C7.61 66.09, -0.2 60.33, 0 49.69 M0 49.69 C0.02 41.32, -1.06 33.41, 0 16.56 M0 49.69 C-0.59 36.16, 1.11 24.33, 0 16.56 M0 16.56 C0.76 5.14, 6.44 -1.3, 16.56 0 M0 16.56 C-1.68 6.35, 3.84 -0.43, 16.56 0" stroke="#1e1e1e" stroke-width="2" fill="none"></path></g><g transform="translate(353.0351257324219 308.125) rotate(0 116.33987426757812 12.5)"><text x="116.33987426757812" y="17.52" font-family="Virgil, Segoe UI Emoji" font-size="20px" fill="#1e1e1e" text-anchor="middle" style="white-space: pre;" direction="ltr" dominant-baseline="alphabetic">Self-Awareness Modules</text></g><g stroke-linecap="round"><g transform="translate(190 236.25) rotate(0 129.14334978228436 24.30734064782041)"><path d="M0.76 -0.08 C32.75 4.21, 149.06 17.71, 191.65 25.88 C234.24 34.06, 245.39 44.98, 256.31 48.99 M-0.3 -1.17 C32.1 2.77, 150.77 15.73, 193.92 24.23 C237.06 32.72, 248.03 45.31, 258.58 49.78" stroke="#1e1e1e" stroke-width="2" fill="none"></path></g><g transform="translate(190 236.25) rotate(0 129.14334978228436 24.30734064782041)"><path d="M233.91 45.72 C240.61 45.27, 249.04 45.83, 258.58 49.78 M233.91 45.72 C238.37 45.98, 245.55 46.96, 258.58 49.78" stroke="#1e1e1e" stroke-width="2" fill="none"></path></g><g transform="translate(190 236.25) rotate(0 129.14334978228436 24.30734064782041)"><path d="M242.3 30.81 C246.7 34.54, 252.81 39.23, 258.58 49.78 M242.3 30.81 C244.9 34.29, 250.26 38.49, 258.58 49.78" stroke="#1e1e1e" stroke-width="2" fill="none"></path></g></g><mask></mask><g stroke-linecap="round"><g transform="translate(713.75 230) rotate(0 -97.18466953226368 27.525406354311883)"><path d="M-0.25 1.19 C-22.91 5.09, -102.1 14.65, -134.76 23.32 C-167.41 32, -186.05 47.97, -196.19 53.23 M1.82 0.77 C-20.58 4.84, -99.95 15.72, -132.58 24.64 C-165.2 33.56, -183.41 49.57, -193.91 54.28" stroke="#1e1e1e" stroke-width="2" fill="none"></path></g><g transform="translate(713.75 230) rotate(0 -97.18466953226368 27.525406354311883)"><path d="M-177.88 35.1 C-182.31 41.04, -191.4 48.4, -193.91 54.28 M-177.88 35.1 C-181.74 39.99, -185.55 45.54, -193.91 54.28" stroke="#1e1e1e" stroke-width="2" fill="none"></path></g><g transform="translate(713.75 230) rotate(0 -97.18466953226368 27.525406354311883)"><path d="M-169.3 49.89 C-177.14 49.91, -189.66 51.37, -193.91 54.28 M-169.3 49.89 C-175.3 51.06, -181.31 52.81, -193.91 54.28" stroke="#1e1e1e" stroke-width="2" fill="none"></path></g></g><mask></mask><g stroke-linecap="round"><g transform="translate(472.5 351.25) rotate(0 0.39109049035329235 41.79062483512797)"><path d="M-0.58 -0.09 C-0.31 13.91, 1.08 70.72, 0.98 84.77 M1.32 -1.19 C1.58 12.44, 0.58 69.3, 0.54 83.18" stroke="#1e1e1e" stroke-width="2" fill="none"></path></g><g transform="translate(472.5 351.25) rotate(0 0.39109049035329235 41.79062483512797)"><path d="M-7.76 59.6 C-5.73 67.05, -1.85 69.25, 0.54 83.18 M-7.76 59.6 C-5.09 67, -2.58 75.87, 0.54 83.18" stroke="#1e1e1e" stroke-width="2" fill="none"></path></g><g transform="translate(472.5 351.25) rotate(0 0.39109049035329235 41.79062483512797)"><path d="M9.34 59.78 C7.17 67.1, 6.86 69.26, 0.54 83.18 M9.34 59.78 C6.27 67.06, 3.03 75.87, 0.54 83.18" stroke="#1e1e1e" stroke-width="2" fill="none"></path></g></g><mask></mask><g stroke-linecap="round" transform="translate(307.5 446.25) rotate(0 171.875 28.75)"><path d="M14.38 0 C136.57 -0.42, 259.21 -2.51, 329.38 0 M14.38 0 C123.99 -2.36, 232.45 -2.77, 329.38 0 M329.38 0 C337.45 0.97, 342.4 3.16, 343.75 14.38 M329.38 0 C339.97 1.06, 344.86 6.8, 343.75 14.38 M343.75 14.38 C342.92 23.94, 342.93 35.39, 343.75 43.13 M343.75 14.38 C343.55 20.66, 342.68 29.44, 343.75 43.13 M343.75 43.13 C345.67 51.57, 337.77 57.98, 329.38 57.5 M343.75 43.13 C344.33 51.97, 340.95 58.24, 329.38 57.5 M329.38 57.5 C219.67 55.46, 111.95 55.7, 14.38 57.5 M329.38 57.5 C239.41 59.5, 148.08 58.7, 14.38 57.5 M14.38 57.5 C3.02 56.13, -1.96 54.57, 0 43.13 M14.38 57.5 C6.83 59.49, -1.93 51.78, 0 43.13 M0 43.13 C-0.29 34.89, -1.82 25.97, 0 14.38 M0 43.13 C0.36 34.18, 0.57 25.84, 0 14.38 M0 14.38 C-0.64 4.56, 6.76 1.51, 14.38 0 M0 14.38 C1.28 3.01, 5.92 1.37, 14.38 0" stroke="#1e1e1e" stroke-width="2" fill="none"></path></g><g transform="translate(348.6151428222656 462.5) rotate(0 130.75985717773438 12.5)"><text x="130.75985717773438" y="17.52" font-family="Virgil, Segoe UI Emoji" font-size="20px" fill="#1e1e1e" text-anchor="middle" style="white-space: pre;" direction="ltr" dominant-baseline="alphabetic">Output: I am feeling good!</text></g><g stroke-linecap="round" transform="translate(256.25 10) rotate(0 211.25 33.75)"><path d="M16.88 0 C122.06 -0.37, 229.18 -0.71, 405.63 0 M16.88 0 C99.47 -2.2, 181.51 -1.64, 405.63 0 M405.63 0 C416.41 -1.33, 424.46 7.11, 422.5 16.88 M405.63 0 C416.7 1.76, 422.12 7.25, 422.5 16.88 M422.5 16.88 C423.76 24.79, 421.32 34.74, 422.5 50.63 M422.5 16.88 C423 24.18, 422.48 33.65, 422.5 50.63 M422.5 50.63 C421.35 62.07, 418.26 68.06, 405.63 67.5 M422.5 50.63 C420.72 63.68, 414.76 66.03, 405.63 67.5 M405.63 67.5 C295.02 70.11, 182.82 69.19, 16.88 67.5 M405.63 67.5 C275.39 66.22, 146.39 65.82, 16.88 67.5 M16.88 67.5 C6.9 68.63, -0.85 63.23, 0 50.63 M16.88 67.5 C5.32 69.08, 0.7 60.42, 0 50.63 M0 50.63 C-0.34 41.52, 0.31 31.05, 0 16.88 M0 50.63 C0.39 41.08, 0.75 31.54, 0 16.88 M0 16.88 C1.4 4.82, 7.57 1.78, 16.88 0 M0 16.88 C-1.77 3.38, 5.39 -1.33, 16.88 0" stroke="#1e1e1e" stroke-width="2" fill="none"></path></g><g transform="translate(301.01019287109375 31.25) rotate(0 166.48980712890625 12.5)"><text x="166.48980712890625" y="17.52" font-family="Virgil, Segoe UI Emoji" font-size="20px" fill="#1e1e1e" text-anchor="middle" style="white-space: pre;" direction="ltr" dominant-baseline="alphabetic">Input: How are you feeling today?</text></g><g stroke-linecap="round"><g transform="translate(470 76.25) rotate(0 -136.05246615016833 48.04463873722591)"><path d="M-0.32 -0.11 C-25.64 6.46, -106.35 22.42, -151.77 38.66 C-197.19 54.89, -252.7 87.52, -272.86 97.31 M1.71 -1.22 C-23.83 5.61, -107.07 24.02, -152.99 40.14 C-198.91 56.27, -253.88 86.31, -273.82 95.52" stroke="#1e1e1e" stroke-width="2" fill="none"></path></g><g transform="translate(470 76.25) rotate(0 -136.05246615016833 48.04463873722591)"><path d="M-256.56 77.44 C-262.29 82.21, -267.68 88.15, -273.82 95.52 M-256.56 77.44 C-263.96 83.84, -269.31 90.93, -273.82 95.52" stroke="#1e1e1e" stroke-width="2" fill="none"></path></g><g transform="translate(470 76.25) rotate(0 -136.05246615016833 48.04463873722591)"><path d="M-248.97 92.76 C-256.99 92.7, -264.76 93.83, -273.82 95.52 M-248.97 92.76 C-259.29 93.29, -267.59 94.43, -273.82 95.52" stroke="#1e1e1e" stroke-width="2" fill="none"></path></g></g><mask></mask><g stroke-linecap="round"><g transform="translate(468.75 76.25) rotate(0 132.09227513260208 45.79140338236465)"><path d="M0.37 -0.51 C31.09 8.41, 139.18 37.76, 183.29 53.22 C227.41 68.68, 251.39 85.61, 265.08 92.23 M-0.89 -1.83 C29.83 6.79, 138.56 35.6, 182.76 51.48 C226.97 67.35, 250.49 86.27, 264.35 93.41" stroke="#1e1e1e" stroke-width="2" fill="none"></path></g><g transform="translate(468.75 76.25) rotate(0 132.09227513260208 45.79140338236465)"><path d="M239.8 88.68 C244.21 90.95, 251.55 90.77, 264.35 93.41 M239.8 88.68 C246.22 90.24, 252.47 90.78, 264.35 93.41" stroke="#1e1e1e" stroke-width="2" fill="none"></path></g><g transform="translate(468.75 76.25) rotate(0 132.09227513260208 45.79140338236465)"><path d="M248.59 74.01 C251.07 79.45, 256.51 82.43, 264.35 93.41 M248.59 74.01 C252.62 79.68, 256.42 84.29, 264.35 93.41" stroke="#1e1e1e" stroke-width="2" fill="none"></path></g></g><mask></mask></svg>