<svg version="1.1" xmlns="http://www.w3.org/2000/svg" viewBox="0 0 955 625.6907243380456" width="955" height="625.6907243380456">
  <!-- svg-source:excalidraw -->
  
  <defs>
    <style class="style-fonts">
      @font-face {
        font-family: "Virgil";
        src: url("https://excalidraw.com/Virgil.woff2");
      }
      @font-face {
        font-family: "Cascadia";
        src: url("https://excalidraw.com/Cascadia.woff2");
      }
      @font-face {
        font-family: "Assistant";
        src: url("https://excalidraw.com/Assistant-Regular.woff2");
      }
    </style>
    
  </defs>
  <rect x="0" y="0" width="955" height="625.6907243380456" fill="#ffffff"></rect><g stroke-linecap="round" transform="translate(378.5 10) rotate(0 81.5 20)"><path d="M10 0 C48.99 -1.41, 91.3 1.18, 153 0 M10 0 C58.09 -0.21, 107.88 0.42, 153 0 M153 0 C160.71 0.9, 161.72 4.4, 163 10 M153 0 C159.39 2.24, 165.03 3.78, 163 10 M163 10 C161.84 16.45, 163.4 21.48, 163 30 M163 10 C163.49 17.45, 162.77 23.75, 163 30 M163 30 C163.59 35.06, 157.89 41.92, 153 40 M163 30 C164 38.1, 161.11 38.18, 153 40 M153 40 C100.36 42.3, 48.35 42.23, 10 40 M153 40 C102.43 39.8, 52.17 40.97, 10 40 M10 40 C3.68 40.44, 1.29 35.96, 0 30 M10 40 C3.09 39.54, -0.23 34.89, 0 30 M0 30 C1.92 24.4, 1.05 22.01, 0 10 M0 30 C0.21 22.65, 0.82 14.99, 0 10 M0 10 C-0.09 4.45, 1.34 -1.38, 10 0 M0 10 C-1.81 1.5, 3.91 -1.69, 10 0" stroke="#1e1e1e" stroke-width="2" fill="none"></path></g><g transform="translate(428.57003021240234 17.5) rotate(0 31.429969787597656 12.5)"><text x="31.429969787597656" y="17.52" font-family="Virgil, Segoe UI Emoji" font-size="20px" fill="#1e1e1e" text-anchor="middle" style="white-space: pre;" direction="ltr" dominant-baseline="alphabetic">Skynet</text></g><g stroke-linecap="round" transform="translate(378 80) rotate(0 81.5 20)"><path d="M10 0 C46.46 2.35, 79.78 1.41, 153 0 M10 0 C64.49 0.71, 116.53 0.01, 153 0 M153 0 C157.93 0.5, 163.65 4.43, 163 10 M153 0 C160.81 -0.42, 160.86 4.56, 163 10 M163 10 C163.76 16.66, 163.21 22.44, 163 30 M163 10 C162.6 16.85, 162.4 21.29, 163 30 M163 30 C164.07 37.56, 160.22 41.39, 153 40 M163 30 C161.1 38, 160.78 39.88, 153 40 M153 40 C120.93 39.98, 88.29 40.22, 10 40 M153 40 C112.71 40.73, 71.17 41.27, 10 40 M10 40 C3.37 38.37, 1.65 36.87, 0 30 M10 40 C2.54 37.78, -1.62 37.84, 0 30 M0 30 C1.7 24.34, -0.41 20.65, 0 10 M0 30 C-0.74 26.22, -0.08 22.18, 0 10 M0 10 C0.04 5.28, 5.1 0.55, 10 0 M0 10 C-0.23 3.59, 1.21 -2.27, 10 0" stroke="#1e1e1e" stroke-width="2" fill="none"></path></g><g transform="translate(401.33006286621094 87.5) rotate(0 58.16993713378906 12.5)"><text x="58.16993713378906" y="17.52" font-family="Virgil, Segoe UI Emoji" font-size="20px" fill="#1e1e1e" text-anchor="middle" style="white-space: pre;" direction="ltr" dominant-baseline="alphabetic">Input Data</text></g><g stroke-linecap="round" transform="translate(314 148) rotate(0 148 29)"><path d="M14.5 0 C117.14 -0.96, 220.42 -0.77, 281.5 0 M14.5 0 C79.6 -0.15, 144.61 0.53, 281.5 0 M281.5 0 C291.72 -0.2, 296.22 2.99, 296 14.5 M281.5 0 C288.89 0.88, 296.48 6.98, 296 14.5 M296 14.5 C294.29 22.29, 294.91 29.36, 296 43.5 M296 14.5 C296.84 24.49, 295.43 35.85, 296 43.5 M296 43.5 C296.89 54.16, 289.72 58.41, 281.5 58 M296 43.5 C295.06 55.16, 290.87 59.44, 281.5 58 M281.5 58 C227.16 60, 172.28 58.47, 14.5 58 M281.5 58 C213.63 57.58, 145.02 56.67, 14.5 58 M14.5 58 C5.84 59.39, -1.05 53.01, 0 43.5 M14.5 58 C6.39 59.56, -1.92 52.79, 0 43.5 M0 43.5 C0.39 32.52, 0.59 24.54, 0 14.5 M0 43.5 C0.13 31.78, -0.72 21.23, 0 14.5 M0 14.5 C-0.11 5.86, 4.94 0.8, 14.5 0 M0 14.5 C-0.17 6.51, 5.93 1.75, 14.5 0" stroke="#1e1e1e" stroke-width="2" fill="none"></path></g><g transform="translate(327.1101531982422 164.5) rotate(0 134.8898468017578 12.5)"><text x="134.8898468017578" y="17.52" font-family="Virgil, Segoe UI Emoji" font-size="20px" fill="#1e1e1e" text-anchor="middle" style="white-space: pre;" direction="ltr" dominant-baseline="alphabetic">Processing Data with SNPs</text></g><g stroke-linecap="round"><g transform="translate(442.7612667125145 208) rotate(0 -168.53223045980332 58.5)"><path d="M0.96 0.35 C-55.09 19.83, -280.62 97.14, -337.09 116.56 M0 -0.5 C-56.13 19.16, -282.16 98.09, -338.05 117.86" stroke="#1e1e1e" stroke-width="2" fill="none"></path></g><g transform="translate(442.7612667125145 208) rotate(0 -168.53223045980332 58.5)"><path d="M-318.72 102.01 C-322.61 105.76, -328.39 108.13, -338.05 117.86 M-318.72 102.01 C-323.97 107.51, -329.55 112.02, -338.05 117.86" stroke="#1e1e1e" stroke-width="2" fill="none"></path></g><g transform="translate(442.7612667125145 208) rotate(0 -168.53223045980332 58.5)"><path d="M-313.06 118.15 C-318.21 118.23, -325.29 116.89, -338.05 117.86 M-313.06 118.15 C-319.84 118.99, -327.05 118.85, -338.05 117.86" stroke="#1e1e1e" stroke-width="2" fill="none"></path></g></g><mask></mask><g stroke-linecap="round"><g transform="translate(461.29688110877794 207) rotate(0 -77.89844055438897 61)"><path d="M0.13 0.58 C-25.73 20.95, -129.88 100.87, -155.76 121 M-1.26 -0.16 C-27.22 20.43, -130.97 101.6, -156.69 122.01" stroke="#1e1e1e" stroke-width="2" fill="none"></path></g><g transform="translate(461.29688110877794 207) rotate(0 -77.89844055438897 61)"><path d="M-143.53 100.76 C-146.07 106.17, -152.02 112.5, -156.69 122.01 M-143.53 100.76 C-146.57 105.07, -148.92 110.33, -156.69 122.01" stroke="#1e1e1e" stroke-width="2" fill="none"></path></g><g transform="translate(461.29688110877794 207) rotate(0 -77.89844055438897 61)"><path d="M-132.95 114.2 C-138.02 116.24, -146.63 119.2, -156.69 122.01 M-132.95 114.2 C-138.66 115.29, -143.61 117.24, -156.69 122.01" stroke="#1e1e1e" stroke-width="2" fill="none"></path></g></g><mask></mask><g stroke-linecap="round" transform="translate(10 331) rotate(0 109.25 35.625)"><path d="M17.81 0 C65.9 1.47, 113.29 3.72, 200.69 0 M17.81 0 C83.45 -0.31, 149.68 0.89, 200.69 0 M200.69 0 C213.04 -0.51, 217.2 6.52, 218.5 17.81 M200.69 0 C213.55 0.28, 220.11 6.23, 218.5 17.81 M218.5 17.81 C219.32 31.34, 219.62 40.32, 218.5 53.44 M218.5 17.81 C219.02 32.06, 218.48 45.76, 218.5 53.44 M218.5 53.44 C219.92 64.67, 213.42 71.58, 200.69 71.25 M218.5 53.44 C218.19 66.89, 214.84 70.45, 200.69 71.25 M200.69 71.25 C133.37 70.87, 64.96 74.05, 17.81 71.25 M200.69 71.25 C132.86 68.95, 64.12 69.9, 17.81 71.25 M17.81 71.25 C4.7 73.09, -0.08 67.25, 0 53.44 M17.81 71.25 C7.87 69.08, 0.11 67.19, 0 53.44 M0 53.44 C1.79 41.09, 2.03 27.91, 0 17.81 M0 53.44 C-0.39 40.59, 0.38 26.67, 0 17.81 M0 17.81 C-1.12 3.98, 6.93 1.84, 17.81 0 M0 17.81 C-0.69 7.53, 7.01 1.98, 17.81 0" stroke="#1e1e1e" stroke-width="2" fill="none"></path></g><g transform="translate(18.020118713378906 341.625) rotate(0 101.2298812866211 25)"><text x="101.2298812866211" y="17.52" font-family="Virgil, Segoe UI Emoji" font-size="20px" fill="#1e1e1e" text-anchor="middle" style="white-space: pre;" direction="ltr" dominant-baseline="alphabetic">Data Processing by </text><text x="101.2298812866211" y="42.519999999999996" font-family="Virgil, Segoe UI Emoji" font-size="20px" fill="#1e1e1e" text-anchor="middle" style="white-space: pre;" direction="ltr" dominant-baseline="alphabetic">nuerons</text></g><g stroke-linecap="round" transform="translate(248 330.5) rotate(0 87.375 36.25)"><path d="M18.12 0 C61.85 0.13, 106.06 0.63, 156.63 0 M18.12 0 C52.06 0.43, 85.27 1.81, 156.63 0 M156.63 0 C170.48 0.24, 174.58 4.72, 174.75 18.12 M156.63 0 C169.54 0.02, 175.45 7.69, 174.75 18.12 M174.75 18.12 C172.71 28.57, 174.48 35.19, 174.75 54.37 M174.75 18.12 C175.5 32.48, 175.51 45.78, 174.75 54.37 M174.75 54.37 C175.72 65.65, 168.22 70.67, 156.63 72.5 M174.75 54.37 C173.41 65.27, 168.02 71.21, 156.63 72.5 M156.63 72.5 C122.19 71.36, 82.9 72.14, 18.12 72.5 M156.63 72.5 C103.3 73.65, 49.12 73.28, 18.12 72.5 M18.12 72.5 C6.97 72.7, 1.01 64.66, 0 54.37 M18.12 72.5 C6.15 71.89, -1.92 66.53, 0 54.37 M0 54.37 C-0.99 43.1, 0.48 34.48, 0 18.12 M0 54.37 C0.14 46.38, 0.29 38.27, 0 18.12 M0 18.12 C1.02 5.53, 6.34 -0.66, 18.12 0 M0 18.12 C-2.08 5.25, 8.24 1, 18.12 0" stroke="#1e1e1e" stroke-width="2" fill="none"></path></g><g transform="translate(269.3750686645508 341.75) rotate(0 65.99993133544922 25)"><text x="65.99993133544922" y="17.52" font-family="Virgil, Segoe UI Emoji" font-size="20px" fill="#1e1e1e" text-anchor="middle" style="white-space: pre;" direction="ltr" dominant-baseline="alphabetic">Learning and </text><text x="65.99993133544922" y="42.519999999999996" font-family="Virgil, Segoe UI Emoji" font-size="20px" fill="#1e1e1e" text-anchor="middle" style="white-space: pre;" direction="ltr" dominant-baseline="alphabetic">Adaption</text></g><g stroke-linecap="round"><g transform="translate(482.2206000859867 209.00000000000006) rotate(0 -4.860300042993288 59.49999999999997)"><path d="M-1.3 0.8 C-2.54 12.59, -8.25 49.98, -9.24 69.79 C-10.23 89.61, -7.34 111.69, -7.26 119.7 M-2.75 0.18 C-3.57 11.71, -6.18 48.49, -6.96 68.08 C-7.74 87.68, -7.15 109.35, -7.45 117.72" stroke="#1e1e1e" stroke-width="2" fill="none"></path></g><g transform="translate(482.2206000859867 209.00000000000006) rotate(0 -4.860300042993288 59.49999999999997)"><path d="M-15.8 94.16 C-12.5 98.88, -10.36 108.16, -7.45 117.72 M-15.8 94.16 C-13.82 102.27, -9.42 111.79, -7.45 117.72" stroke="#1e1e1e" stroke-width="2" fill="none"></path></g><g transform="translate(482.2206000859867 209.00000000000006) rotate(0 -4.860300042993288 59.49999999999997)"><path d="M1.3 94.3 C0.19 98.98, -2.08 108.23, -7.45 117.72 M1.3 94.3 C-2.84 102.19, -4.57 111.67, -7.45 117.72" stroke="#1e1e1e" stroke-width="2" fill="none"></path></g></g><mask></mask><g stroke-linecap="round" transform="translate(440 329.5) rotate(0 104.875 33.75)"><path d="M16.88 0 C82.03 -1.03, 149.61 -2.61, 192.87 0 M16.88 0 C56.2 1.4, 97.51 1.16, 192.87 0 M192.87 0 C203.99 0.08, 209.09 6.1, 209.75 16.88 M192.87 0 C202.19 0.49, 210.35 5.75, 209.75 16.88 M209.75 16.88 C210.77 31.22, 208.43 44.4, 209.75 50.63 M209.75 16.88 C210.57 27.9, 210.56 38.66, 209.75 50.63 M209.75 50.63 C210.15 61.08, 205.51 69.23, 192.87 67.5 M209.75 50.63 C210.52 60.39, 202.49 65.47, 192.87 67.5 M192.87 67.5 C126.96 68.57, 59.01 69.69, 16.88 67.5 M192.87 67.5 C148.35 67.41, 104.79 66.14, 16.88 67.5 M16.88 67.5 C7.49 68.43, 0.7 60.26, 0 50.63 M16.88 67.5 C5.25 68.66, -1.1 61.18, 0 50.63 M0 50.63 C1.69 39.96, -2.12 30.24, 0 16.88 M0 50.63 C0.82 37.07, 0.79 24.67, 0 16.88 M0 16.88 C-0.93 5.53, 4.56 -0.79, 16.88 0 M0 16.88 C1.08 4.54, 6.34 -0.95, 16.88 0" stroke="#1e1e1e" stroke-width="2" fill="none"></path></g><g transform="translate(445.6251220703125 338.25) rotate(0 99.2498779296875 25)"><text x="99.2498779296875" y="17.52" font-family="Virgil, Segoe UI Emoji" font-size="20px" fill="#1e1e1e" text-anchor="middle" style="white-space: pre;" direction="ltr" dominant-baseline="alphabetic">Multi-Tasking/</text><text x="99.2498779296875" y="42.519999999999996" font-family="Virgil, Segoe UI Emoji" font-size="20px" fill="#1e1e1e" text-anchor="middle" style="white-space: pre;" direction="ltr" dominant-baseline="alphabetic">Hyper-Parallelization</text></g><g stroke-linecap="round"><g transform="translate(519.3119283268649 207) rotate(0 119.5695948731697 58.375)"><path d="M0.5 -0.31 C30.51 10.83, 140.39 47.83, 180.07 67.29 C219.74 86.76, 228.71 108.3, 238.53 116.48 M-0.7 -1.51 C29.19 9.22, 139.62 45.59, 179.32 65.45 C219.01 85.31, 227.47 109.02, 237.45 117.65" stroke="#1e1e1e" stroke-width="2" fill="none"></path></g><g transform="translate(519.3119283268649 207) rotate(0 119.5695948731697 58.375)"><path d="M215.83 105.1 C221.85 109.4, 229.75 111.52, 237.45 117.65 M215.83 105.1 C221.2 108.58, 227.42 111.67, 237.45 117.65" stroke="#1e1e1e" stroke-width="2" fill="none"></path></g><g transform="translate(519.3119283268649 207) rotate(0 119.5695948731697 58.375)"><path d="M228.96 94.14 C231.09 101.78, 235.05 107.19, 237.45 117.65 M228.96 94.14 C230.68 100.61, 233.26 106.74, 237.45 117.65" stroke="#1e1e1e" stroke-width="2" fill="none"></path></g></g><mask></mask><g stroke-linecap="round" transform="translate(662.75 334.75) rotate(0 141.125 30)"><path d="M15 0 C98.99 -1.08, 181.8 -0.65, 267.25 0 M15 0 C81.11 -2.04, 148.31 -1.74, 267.25 0 M267.25 0 C276.19 -1.78, 282.12 5.83, 282.25 15 M267.25 0 C278.64 -1.8, 282.28 3.1, 282.25 15 M282.25 15 C281.55 24.12, 280.68 33.55, 282.25 45 M282.25 15 C282.28 23.93, 281.94 31.72, 282.25 45 M282.25 45 C281.44 53, 275.59 60.06, 267.25 60 M282.25 45 C282.23 54.5, 278.54 58.1, 267.25 60 M267.25 60 C203.02 58.35, 136.75 59.31, 15 60 M267.25 60 C214.34 58.71, 159.23 58.91, 15 60 M15 60 C5.97 58.88, 0.27 55.54, 0 45 M15 60 C5.35 58.59, 1.58 55.62, 0 45 M0 45 C-2.23 36.82, 1.72 33.19, 0 15 M0 45 C-0.52 34.46, 0.63 22.9, 0 15 M0 15 C-1.57 5.47, 4.06 1.61, 15 0 M0 15 C-0.11 4.99, 4.97 -1.91, 15 0" stroke="#1e1e1e" stroke-width="2" fill="none"></path></g><g transform="translate(727.8650894165039 339.75) rotate(0 76.0099105834961 25)"><text x="76.0099105834961" y="17.52" font-family="Virgil, Segoe UI Emoji" font-size="20px" fill="#1e1e1e" text-anchor="middle" style="white-space: pre;" direction="ltr" dominant-baseline="alphabetic">Error Checking/</text><text x="76.0099105834961" y="42.519999999999996" font-family="Virgil, Segoe UI Emoji" font-size="20px" fill="#1e1e1e" text-anchor="middle" style="white-space: pre;" direction="ltr" dominant-baseline="alphabetic">and verification</text></g><g stroke-linecap="round"><g transform="translate(459.5 54) rotate(0 0.5 13.5)"><path d="M-0.51 0.07 C-0.25 4.62, 1.07 23.03, 1.25 27.48 M0.22 -0.37 C0.47 4.02, 0.7 22.16, 0.94 26.77" stroke="#1e1e1e" stroke-width="2" fill="none"></path></g><g transform="translate(459.5 54) rotate(0 0.5 13.5)"><path d="M-4.06 14.22 C-2.77 17.5, -1.08 19.62, 0.94 26.77 M-4.06 14.22 C-2.69 17.82, -1.58 21.06, 0.94 26.77" stroke="#1e1e1e" stroke-width="2" fill="none"></path></g><g transform="translate(459.5 54) rotate(0 0.5 13.5)"><path d="M5.18 13.94 C4.29 17.25, 3.8 19.43, 0.94 26.77 M5.18 13.94 C4.12 17.6, 2.8 20.92, 0.94 26.77" stroke="#1e1e1e" stroke-width="2" fill="none"></path></g></g><mask></mask><g stroke-linecap="round"><g transform="translate(460.5 123) rotate(0 0 14)"><path d="M0.18 0.17 C0.15 4.79, 0.32 23.52, 0.22 28.08 M-0.39 -0.22 C-0.5 4.48, -0.28 24.14, -0.09 28.82" stroke="#1e1e1e" stroke-width="2" fill="none"></path></g><g transform="translate(460.5 123) rotate(0 0 14)"><path d="M-5.18 15.78 C-3.04 20.88, -1.27 24.96, -0.09 28.82 M-5.18 15.78 C-4.41 18.45, -2.83 21.32, -0.09 28.82" stroke="#1e1e1e" stroke-width="2" fill="none"></path></g><g transform="translate(460.5 123) rotate(0 0 14)"><path d="M4.39 15.56 C2.99 20.76, 1.21 24.92, -0.09 28.82 M4.39 15.56 C3.13 18.28, 2.68 21.2, -0.09 28.82" stroke="#1e1e1e" stroke-width="2" fill="none"></path></g></g><mask></mask><g stroke-linecap="round" transform="translate(280.3095470090617 547.2781881207167) rotate(359.67071753615335 168.69045299093824 33.72181187928339)"><path d="M16.86 0 C101.97 0.97, 185.05 0.34, 320.52 0 M16.86 0 C114.38 0.64, 211.39 0.97, 320.52 0 M320.52 0 C331.44 -0.74, 337.59 6.14, 337.38 16.86 M320.52 0 C332.32 -0.75, 336.91 4.84, 337.38 16.86 M337.38 16.86 C337.76 26.18, 335.81 30.42, 337.38 50.58 M337.38 16.86 C337.45 24.38, 337.22 34.63, 337.38 50.58 M337.38 50.58 C336.3 59.87, 330.56 66.03, 320.52 67.44 M337.38 50.58 C336.45 63.25, 333.6 69.25, 320.52 67.44 M320.52 67.44 C237.57 68.9, 153.67 68.71, 16.86 67.44 M320.52 67.44 C232.16 68.65, 143.4 69.16, 16.86 67.44 M16.86 67.44 C5.25 69.42, -0.31 61.14, 0 50.58 M16.86 67.44 C6.39 67.99, 2.16 61.42, 0 50.58 M0 50.58 C-1.26 40.41, -0.07 29.1, 0 16.86 M0 50.58 C0.76 39.09, 0.4 28.37, 0 16.86 M0 16.86 C0.26 6.73, 4.68 1.99, 16.86 0 M0 16.86 C-0.07 3.83, 4.94 2.2, 16.86 0" stroke="#1e1e1e" stroke-width="2" fill="none"></path></g><g transform="translate(419.5 566.75) rotate(0 34.84996032714844 12.5)"><text x="0" y="17.52" font-family="Virgil, Segoe UI Emoji" font-size="20px" fill="#1e1e1e" text-anchor="start" style="white-space: pre;" direction="ltr" dominant-baseline="alphabetic">Output</text></g><g stroke-linecap="round"><g transform="translate(110.50783792897266 403.25000000000006) rotate(0 142.53112012765115 71.30596626351823)"><path d="M0.54 -0.56 C47.77 23.08, 237.12 118.83, 284.56 142.69 M-0.64 1.77 C46.29 25.54, 235.83 120.58, 283.35 144.26" stroke="#1e1e1e" stroke-width="2" fill="none"></path></g><g transform="translate(110.50783792897266 403.25000000000006) rotate(0 142.53112012765115 71.30596626351823)"><path d="M258.51 141.4 C267.46 141.59, 278.36 143.77, 283.35 144.26 M258.51 141.4 C266.42 142.96, 273.02 143.32, 283.35 144.26" stroke="#1e1e1e" stroke-width="2" fill="none"></path></g><g transform="translate(110.50783792897266 403.25000000000006) rotate(0 142.53112012765115 71.30596626351823)"><path d="M266.16 126.11 C272.18 132.39, 280.05 140.64, 283.35 144.26 M266.16 126.11 C271.81 132.14, 276.14 137.01, 283.35 144.26" stroke="#1e1e1e" stroke-width="2" fill="none"></path></g></g><mask></mask><g stroke-linecap="round"><g transform="translate(313.03112961048976 404.0000000000001) rotate(0 69.83821406314854 71.12096954244333)"><path d="M-0.49 0.36 C11.92 13.28, 50.53 53.12, 73.95 76.67 C97.38 100.22, 129.15 130.86, 140.04 141.66 M1.45 -0.5 C13.73 12.69, 49.86 54.23, 72.87 78.09 C95.87 101.95, 128.39 131.99, 139.47 142.67" stroke="#1e1e1e" stroke-width="2" fill="none"></path></g><g transform="translate(313.03112961048976 404.0000000000001) rotate(0 69.83821406314854 71.12096954244333)"><path d="M116.54 132.71 C122.93 134.91, 127.85 138.51, 139.47 142.67 M116.54 132.71 C122.23 134.83, 127.93 137.79, 139.47 142.67" stroke="#1e1e1e" stroke-width="2" fill="none"></path></g><g transform="translate(313.03112961048976 404.0000000000001) rotate(0 69.83821406314854 71.12096954244333)"><path d="M128.3 120.3 C131.59 125.63, 133.5 132.4, 139.47 142.67 M128.3 120.3 C131 125.46, 133.75 131.54, 139.47 142.67" stroke="#1e1e1e" stroke-width="2" fill="none"></path></g></g><mask></mask><g stroke-linecap="round"><g transform="translate(539.8381629060234 400.75) rotate(0 -32.364200649203326 73.31737125545817)"><path d="M-0.33 0.41 C-3.2 12.14, -6.72 46.1, -17.64 70.66 C-28.55 95.21, -57.92 135.24, -65.82 147.73 M1.7 -0.43 C-1.29 10.93, -7.75 44.41, -18.61 68.81 C-29.48 93.21, -55.78 133.07, -63.5 145.96" stroke="#1e1e1e" stroke-width="2" fill="none"></path></g><g transform="translate(539.8381629060234 400.75) rotate(0 -32.364200649203326 73.31737125545817)"><path d="M-58.33 121.5 C-58.98 127.88, -60.14 132.63, -63.5 145.96 M-58.33 121.5 C-60.13 131.61, -61.94 140.77, -63.5 145.96" stroke="#1e1e1e" stroke-width="2" fill="none"></path></g><g transform="translate(539.8381629060234 400.75) rotate(0 -32.364200649203326 73.31737125545817)"><path d="M-43.82 130.54 C-48.32 134.49, -53.33 136.84, -63.5 145.96 M-43.82 130.54 C-51.27 136.99, -58.75 142.62, -63.5 145.96" stroke="#1e1e1e" stroke-width="2" fill="none"></path></g></g><mask></mask><g stroke-linecap="round"><g transform="translate(757.370946381011 395.75) rotate(0 -124.5435150422478 75.09345127071998)"><path d="M0.13 -1.18 C-15.42 11.51, -52.5 49.99, -93.96 75.19 C-135.42 100.39, -222.64 137.59, -248.62 150.01 M-1.26 0.81 C-16.95 13.75, -53.77 51.36, -95.09 76.43 C-136.4 101.5, -223.32 138.89, -249.15 151.24" stroke="#1e1e1e" stroke-width="2" fill="none"></path></g><g transform="translate(757.370946381011 395.75) rotate(0 -124.5435150422478 75.09345127071998)"><path d="M-231.34 133.68 C-237.84 137.47, -241.2 143.14, -249.15 151.24 M-231.34 133.68 C-236.31 139.28, -241.54 142.76, -249.15 151.24" stroke="#1e1e1e" stroke-width="2" fill="none"></path></g><g transform="translate(757.370946381011 395.75) rotate(0 -124.5435150422478 75.09345127071998)"><path d="M-224.23 149.24 C-232.36 149.19, -237.47 151.02, -249.15 151.24 M-224.23 149.24 C-231.13 150.36, -238.39 149.41, -249.15 151.24" stroke="#1e1e1e" stroke-width="2" fill="none"></path></g></g><mask></mask></svg>